<svg width="2092pt" height="449pt" viewBox="0.00 0.00 2092.00 449.00" xmlns="http://www.w3.org/2000/svg" xmlns:xlink="http://www.w3.org/1999/xlink">
<g id="graph0" class="graph" transform="scale(1 1) rotate(0) translate(4 444.8)">
<title>DFA</title>
<polygon fill="white" stroke="none" points="-4,4 -4,-444.8 2088.12,-444.8 2088.12,4 -4,4"/>
<!-- start -->
<g id="node1" class="node">
<title>start</title>
</g>
<!-- 0 -->
<g id="node2" class="node">
<title>0</title>
<ellipse fill="none" stroke="black" cx="109" cy="-103" rx="18" ry="18"/>
<text xml:space="preserve" text-anchor="middle" x="109" y="-98.8" font-family="Times,serif" font-size="14.00">0</text>
</g>
<!-- start&#45;&gt;0 -->
<g id="edge1" class="edge">
<title>start-&gt;0</title>
<path fill="none" stroke="black" d="M53.75,-103C61.85,-103 70.85,-103 79.16,-103"/>
<polygon fill="black" stroke="black" points="79.12,-106.5 89.12,-103 79.12,-99.5 79.12,-106.5"/>
</g>
<!-- 2 -->
<g id="node7" class="node">
<title>2</title>
<ellipse fill="none" stroke="black" cx="266.21" cy="-130" rx="18" ry="18"/>
<text xml:space="preserve" text-anchor="middle" x="266.21" y="-125.8" font-family="Times,serif" font-size="14.00">2</text>
</g>
<!-- 0&#45;&gt;2 -->
<g id="edge2" class="edge">
<title>0-&gt;2</title>
<path fill="none" stroke="black" d="M126.69,-107.06C132.47,-108.4 139,-109.84 145,-111 176.24,-117.03 212.31,-122.54 236.73,-126.06"/>
<polygon fill="black" stroke="black" points="236.14,-129.51 246.53,-127.45 237.12,-122.58 236.14,-129.51"/>
<text xml:space="preserve" text-anchor="middle" x="187.21" y="-125.51" font-family="Times,serif" font-size="14.00">b</text>
</g>
<!-- 1 -->
<g id="node15" class="node">
<title>1</title>
<ellipse fill="none" stroke="black" cx="187.21" cy="-76" rx="18" ry="18"/>
<text xml:space="preserve" text-anchor="middle" x="187.21" y="-71.8" font-family="Times,serif" font-size="14.00">1</text>
</g>
<!-- 0&#45;&gt;1 -->
<g id="edge31" class="edge">
<title>0-&gt;1</title>
<path fill="none" stroke="black" d="M126.54,-97.14C136.03,-93.78 148.17,-89.48 159.03,-85.63"/>
<polygon fill="black" stroke="black" points="160.03,-88.99 168.28,-82.35 157.69,-82.39 160.03,-88.99"/>
<text xml:space="preserve" text-anchor="middle" x="148.11" y="-94.51" font-family="Times,serif" font-size="14.00">a</text>
</g>
<!-- 21 -->
<g id="node3" class="node">
<title>21</title>
<ellipse fill="none" stroke="black" cx="1031.31" cy="-285" rx="20.69" ry="20.69"/>
<ellipse fill="none" stroke="black" cx="1031.31" cy="-285" rx="24.69" ry="24.69"/>
<text xml:space="preserve" text-anchor="middle" x="1031.31" y="-280.8" font-family="Times,serif" font-size="14.00">21</text>
</g>
<!-- 11 -->
<g id="node9" class="node">
<title>11</title>
<ellipse fill="none" stroke="black" cx="1198.7" cy="-207" rx="20.69" ry="20.69"/>
<text xml:space="preserve" text-anchor="middle" x="1198.7" y="-202.8" font-family="Times,serif" font-size="14.00">11</text>
</g>
<!-- 21&#45;&gt;11 -->
<g id="edge44" class="edge">
<title>21-&gt;11</title>
<path fill="none" stroke="black" d="M1056.37,-284.37C1077.99,-282.93 1110.1,-278.62 1135,-266 1151.31,-257.74 1166.35,-243.9 1177.6,-231.7"/>
<polygon fill="black" stroke="black" points="1180.1,-234.16 1184.1,-224.35 1174.85,-229.53 1180.1,-234.16"/>
<text xml:space="preserve" text-anchor="middle" x="1117" y="-282.56" font-family="Times,serif" font-size="14.00">b</text>
</g>
<!-- 8 -->
<g id="node13" class="node">
<title>8</title>
<ellipse fill="none" stroke="black" cx="1117" cy="-204" rx="18" ry="18"/>
<text xml:space="preserve" text-anchor="middle" x="1117" y="-199.8" font-family="Times,serif" font-size="14.00">8</text>
</g>
<!-- 21&#45;&gt;8 -->
<g id="edge6" class="edge">
<title>21-&gt;8</title>
<path fill="none" stroke="black" d="M1050.01,-268.51C1059.29,-259.8 1070.83,-248.89 1081,-239 1085.78,-234.36 1090.87,-229.32 1095.65,-224.55"/>
<polygon fill="black" stroke="black" points="1098.13,-227.02 1102.71,-217.47 1093.17,-222.08 1098.13,-227.02"/>
<text xml:space="preserve" text-anchor="middle" x="1077.5" y="-249.53" font-family="Times,serif" font-size="14.00">a</text>
</g>
<!-- 22 -->
<g id="node4" class="node">
<title>22</title>
<ellipse fill="none" stroke="black" cx="2059.42" cy="-147" rx="20.69" ry="20.69"/>
<ellipse fill="none" stroke="black" cx="2059.42" cy="-147" rx="24.69" ry="24.69"/>
<text xml:space="preserve" text-anchor="middle" x="2059.42" y="-142.8" font-family="Times,serif" font-size="14.00">22</text>
</g>
<!-- 22&#45;&gt;11 -->
<g id="edge24" class="edge">
<title>22-&gt;11</title>
<path fill="none" stroke="black" d="M2055.42,-122.4C2048.8,-80.55 2028.79,0 1972.82,0 1282.08,0 1282.08,0 1282.08,0 1244.81,0 1216.97,-117.32 1205.48,-175.31"/>
<polygon fill="black" stroke="black" points="1202.08,-174.43 1203.63,-184.91 1208.96,-175.75 1202.08,-174.43"/>
<text xml:space="preserve" text-anchor="middle" x="1624.63" y="-4.2" font-family="Times,serif" font-size="14.00">a</text>
</g>
<!-- 13 -->
<g id="node12" class="node">
<title>13</title>
<ellipse fill="none" stroke="black" cx="1283.08" cy="-207" rx="20.69" ry="20.69"/>
<text xml:space="preserve" text-anchor="middle" x="1283.08" y="-202.8" font-family="Times,serif" font-size="14.00">13</text>
</g>
<!-- 22&#45;&gt;13 -->
<g id="edge45" class="edge">
<title>22-&gt;13</title>
<path fill="none" stroke="black" d="M2058.81,-172.05C2058.21,-225.93 2048.49,-348 1972.82,-348 1366.47,-348 1366.47,-348 1366.47,-348 1316.3,-348 1296.13,-280.63 1288.45,-239.03"/>
<polygon fill="black" stroke="black" points="1291.92,-238.58 1286.81,-229.3 1285.02,-239.74 1291.92,-238.58"/>
<text xml:space="preserve" text-anchor="middle" x="1670.83" y="-352.2" font-family="Times,serif" font-size="14.00">b</text>
</g>
<!-- 23 -->
<g id="node5" class="node">
<title>23</title>
<ellipse fill="none" stroke="black" cx="1800.62" cy="-197" rx="20.69" ry="20.69"/>
<ellipse fill="none" stroke="black" cx="1800.62" cy="-197" rx="24.69" ry="24.69"/>
<text xml:space="preserve" text-anchor="middle" x="1800.62" y="-192.8" font-family="Times,serif" font-size="14.00">23</text>
</g>
<!-- 20 -->
<g id="node22" class="node">
<title>20</title>
<ellipse fill="none" stroke="black" cx="1451.86" cy="-210" rx="20.69" ry="20.69"/>
<text xml:space="preserve" text-anchor="middle" x="1451.86" y="-205.8" font-family="Times,serif" font-size="14.00">20</text>
</g>
<!-- 23&#45;&gt;20 -->
<g id="edge19" class="edge">
<title>23-&gt;20</title>
<path fill="none" stroke="black" d="M1779.13,-209.55C1766.54,-216.42 1749.8,-224.11 1733.71,-227 1627.32,-246.13 1597.05,-240.49 1490.55,-222 1487.93,-221.54 1485.23,-220.95 1482.54,-220.27"/>
<polygon fill="black" stroke="black" points="1483.81,-217 1473.23,-217.56 1481.86,-223.72 1483.81,-217"/>
<text xml:space="preserve" text-anchor="middle" x="1624.63" y="-243.09" font-family="Times,serif" font-size="14.00">b</text>
</g>
<!-- 15 -->
<g id="node27" class="node">
<title>15</title>
<ellipse fill="none" stroke="black" cx="1888.22" cy="-258" rx="20.69" ry="20.69"/>
<text xml:space="preserve" text-anchor="middle" x="1888.22" y="-253.8" font-family="Times,serif" font-size="14.00">15</text>
</g>
<!-- 23&#45;&gt;15 -->
<g id="edge47" class="edge">
<title>23-&gt;15</title>
<path fill="none" stroke="black" d="M1822.5,-209.39C1831.03,-214.65 1840.91,-221 1849.53,-227.2 1854.01,-230.42 1858.65,-234.01 1863.09,-237.56"/>
<polygon fill="black" stroke="black" points="1860.66,-240.09 1870.62,-243.71 1865.09,-234.67 1860.66,-240.09"/>
<text xml:space="preserve" text-anchor="middle" x="1846.42" y="-231.4" font-family="Times,serif" font-size="14.00">a</text>
</g>
<!-- 25 -->
<g id="node6" class="node">
<title>25</title>
<ellipse fill="none" stroke="black" cx="1624.63" cy="-151" rx="20.69" ry="20.69"/>
<ellipse fill="none" stroke="black" cx="1624.63" cy="-151" rx="24.69" ry="24.69"/>
<text xml:space="preserve" text-anchor="middle" x="1624.63" y="-146.8" font-family="Times,serif" font-size="14.00">25</text>
</g>
<!-- 19 -->
<g id="node14" class="node">
<title>19</title>
<ellipse fill="none" stroke="black" cx="1713.02" cy="-197" rx="20.69" ry="20.69"/>
<text xml:space="preserve" text-anchor="middle" x="1713.02" y="-192.8" font-family="Times,serif" font-size="14.00">19</text>
</g>
<!-- 25&#45;&gt;19 -->
<g id="edge53" class="edge">
<title>25-&gt;19</title>
<path fill="none" stroke="black" d="M1647.76,-160.33C1656.19,-164.08 1665.82,-168.61 1674.33,-173.2 1678.09,-175.23 1681.98,-177.5 1685.77,-179.8"/>
<polygon fill="black" stroke="black" points="1683.81,-182.7 1694.14,-185.04 1687.52,-176.76 1683.81,-182.7"/>
<text xml:space="preserve" text-anchor="middle" x="1670.83" y="-177.4" font-family="Times,serif" font-size="14.00">b</text>
</g>
<!-- 18 -->
<g id="node25" class="node">
<title>18</title>
<ellipse fill="none" stroke="black" cx="1971.82" cy="-147" rx="20.69" ry="20.69"/>
<text xml:space="preserve" text-anchor="middle" x="1971.82" y="-142.8" font-family="Times,serif" font-size="14.00">18</text>
</g>
<!-- 25&#45;&gt;18 -->
<g id="edge25" class="edge">
<title>25-&gt;18</title>
<path fill="none" stroke="black" d="M1642.38,-133.4C1658.61,-118.31 1684.71,-99 1712.02,-99 1712.02,-99 1712.02,-99 1889.22,-99 1911.48,-99 1933.02,-112.43 1948.38,-125.09"/>
<polygon fill="black" stroke="black" points="1945.7,-127.39 1955.53,-131.34 1950.31,-122.12 1945.7,-127.39"/>
<text xml:space="preserve" text-anchor="middle" x="1800.62" y="-103.2" font-family="Times,serif" font-size="14.00">a</text>
</g>
<!-- 3 -->
<g id="node16" class="node">
<title>3</title>
<ellipse fill="none" stroke="black" cx="345.21" cy="-47" rx="18" ry="18"/>
<text xml:space="preserve" text-anchor="middle" x="345.21" y="-42.8" font-family="Times,serif" font-size="14.00">3</text>
</g>
<!-- 2&#45;&gt;3 -->
<g id="edge33" class="edge">
<title>2-&gt;3</title>
<path fill="none" stroke="black" d="M279.25,-117.03C291.34,-104 310.18,-83.68 324.47,-68.28"/>
<polygon fill="black" stroke="black" points="327,-70.7 331.24,-60.99 321.87,-65.94 327,-70.7"/>
<text xml:space="preserve" text-anchor="middle" x="305.71" y="-95.19" font-family="Times,serif" font-size="14.00">a</text>
</g>
<!-- 5 -->
<g id="node23" class="node">
<title>5</title>
<ellipse fill="none" stroke="black" cx="399.21" cy="-210" rx="18" ry="18"/>
<text xml:space="preserve" text-anchor="middle" x="399.21" y="-205.8" font-family="Times,serif" font-size="14.00">5</text>
</g>
<!-- 2&#45;&gt;5 -->
<g id="edge35" class="edge">
<title>2-&gt;5</title>
<path fill="none" stroke="black" d="M282.24,-139.18C304.55,-152.8 346.68,-178.53 373.55,-194.94"/>
<polygon fill="black" stroke="black" points="371.71,-197.92 382.07,-200.14 375.36,-191.94 371.71,-197.92"/>
<text xml:space="preserve" text-anchor="middle" x="305.71" y="-159.11" font-family="Times,serif" font-size="14.00">b</text>
</g>
<!-- 17 -->
<g id="node8" class="node">
<title>17</title>
<ellipse fill="none" stroke="black" cx="943.71" cy="-337" rx="20.69" ry="20.69"/>
<text xml:space="preserve" text-anchor="middle" x="943.71" y="-332.8" font-family="Times,serif" font-size="14.00">17</text>
</g>
<!-- 17&#45;&gt;21 -->
<g id="edge14" class="edge">
<title>17-&gt;21</title>
<path fill="none" stroke="black" d="M959.88,-323.67C966.53,-318.19 974.59,-312.01 982.4,-307.2 987.35,-304.16 992.79,-301.26 998.16,-298.62"/>
<polygon fill="black" stroke="black" points="999.33,-301.94 1006.92,-294.54 996.37,-295.59 999.33,-301.94"/>
<text xml:space="preserve" text-anchor="middle" x="985.51" y="-311.4" font-family="Times,serif" font-size="14.00">a</text>
</g>
<!-- 17&#45;&gt;11 -->
<g id="edge3" class="edge">
<title>17-&gt;11</title>
<path fill="none" stroke="black" d="M964.62,-337.77C1001.42,-338.22 1081.22,-334.64 1135,-299 1157.92,-283.82 1174.72,-257.11 1185.13,-236.37"/>
<polygon fill="black" stroke="black" points="1188.2,-238.06 1189.34,-227.53 1181.88,-235.05 1188.2,-238.06"/>
<text xml:space="preserve" text-anchor="middle" x="1077.5" y="-328.97" font-family="Times,serif" font-size="14.00">b</text>
</g>
<!-- 11&#45;&gt;11 -->
<g id="edge38" class="edge">
<title>11-&gt;11</title>
<path fill="none" stroke="black" d="M1191.06,-226.51C1189.89,-236.6 1192.43,-245.69 1198.7,-245.69 1202.42,-245.69 1204.82,-242.49 1205.92,-237.77"/>
<polygon fill="black" stroke="black" points="1209.41,-238.14 1206.28,-228.02 1202.41,-237.89 1209.41,-238.14"/>
<text xml:space="preserve" text-anchor="middle" x="1198.7" y="-249.89" font-family="Times,serif" font-size="14.00">a</text>
</g>
<!-- 11&#45;&gt;13 -->
<g id="edge17" class="edge">
<title>11-&gt;13</title>
<path fill="none" stroke="black" d="M1219.64,-207C1228.98,-207 1240.33,-207 1250.78,-207"/>
<polygon fill="black" stroke="black" points="1250.53,-210.5 1260.53,-207 1250.53,-203.5 1250.53,-210.5"/>
<text xml:space="preserve" text-anchor="middle" x="1240.89" y="-211.2" font-family="Times,serif" font-size="14.00">b</text>
</g>
<!-- 9 -->
<g id="node10" class="node">
<title>9</title>
<ellipse fill="none" stroke="black" cx="532.21" cy="-53" rx="18" ry="18"/>
<text xml:space="preserve" text-anchor="middle" x="532.21" y="-48.8" font-family="Times,serif" font-size="14.00">9</text>
</g>
<!-- 7 -->
<g id="node11" class="node">
<title>7</title>
<ellipse fill="none" stroke="black" cx="611.21" cy="-112" rx="18" ry="18"/>
<text xml:space="preserve" text-anchor="middle" x="611.21" y="-107.8" font-family="Times,serif" font-size="14.00">7</text>
</g>
<!-- 9&#45;&gt;7 -->
<g id="edge4" class="edge">
<title>9-&gt;7</title>
<path fill="none" stroke="black" d="M546.98,-63.55C558.19,-72.14 574.25,-84.44 587.38,-94.5"/>
<polygon fill="black" stroke="black" points="585.04,-97.12 595.11,-100.42 589.3,-91.56 585.04,-97.12"/>
<text xml:space="preserve" text-anchor="middle" x="571.71" y="-88.47" font-family="Times,serif" font-size="14.00">b</text>
</g>
<!-- 9&#45;&gt;8 -->
<g id="edge21" class="edge">
<title>9-&gt;8</title>
<path fill="none" stroke="black" d="M550.64,-51.93C566.24,-51.07 589.75,-50 610.21,-50 610.21,-50 610.21,-50 1032.31,-50 1088.34,-50 1107.07,-129.66 1113.17,-174.39"/>
<polygon fill="black" stroke="black" points="1109.68,-174.72 1114.36,-184.23 1116.63,-173.88 1109.68,-174.72"/>
<text xml:space="preserve" text-anchor="middle" x="818.31" y="-54.2" font-family="Times,serif" font-size="14.00">a</text>
</g>
<!-- 7&#45;&gt;8 -->
<g id="edge10" class="edge">
<title>7-&gt;8</title>
<path fill="none" stroke="black" d="M628.81,-106.67C644.8,-102.02 669.75,-96 691.91,-96 691.91,-96 691.91,-96 1032.31,-96 1072.84,-96 1096.55,-144.11 1107.84,-176.11"/>
<polygon fill="black" stroke="black" points="1104.39,-176.81 1110.84,-185.21 1111.03,-174.62 1104.39,-176.81"/>
<text xml:space="preserve" text-anchor="middle" x="860.11" y="-100.2" font-family="Times,serif" font-size="14.00">a</text>
</g>
<!-- 10 -->
<g id="node21" class="node">
<title>10</title>
<ellipse fill="none" stroke="black" cx="692.91" cy="-145" rx="20.69" ry="20.69"/>
<text xml:space="preserve" text-anchor="middle" x="692.91" y="-140.8" font-family="Times,serif" font-size="14.00">10</text>
</g>
<!-- 7&#45;&gt;10 -->
<g id="edge16" class="edge">
<title>7-&gt;10</title>
<path fill="none" stroke="black" d="M628.34,-118.68C638.2,-122.76 651.1,-128.1 662.7,-132.91"/>
<polygon fill="black" stroke="black" points="661.31,-136.12 671.89,-136.71 663.99,-129.65 661.31,-136.12"/>
<text xml:space="preserve" text-anchor="middle" x="650.71" y="-132.7" font-family="Times,serif" font-size="14.00">b</text>
</g>
<!-- 13&#45;&gt;13 -->
<g id="edge5" class="edge">
<title>13-&gt;13</title>
<path fill="none" stroke="black" d="M1275.45,-226.51C1274.28,-236.6 1276.82,-245.69 1283.08,-245.69 1286.8,-245.69 1289.21,-242.49 1290.31,-237.77"/>
<polygon fill="black" stroke="black" points="1293.8,-238.14 1290.66,-228.02 1286.8,-237.89 1293.8,-238.14"/>
<text xml:space="preserve" text-anchor="middle" x="1283.08" y="-249.89" font-family="Times,serif" font-size="14.00">b</text>
</g>
<!-- 16 -->
<g id="node18" class="node">
<title>16</title>
<ellipse fill="none" stroke="black" cx="1367.47" cy="-210" rx="20.69" ry="20.69"/>
<text xml:space="preserve" text-anchor="middle" x="1367.47" y="-205.8" font-family="Times,serif" font-size="14.00">16</text>
</g>
<!-- 13&#45;&gt;16 -->
<g id="edge11" class="edge">
<title>13-&gt;16</title>
<path fill="none" stroke="black" d="M1304.03,-207.73C1313.37,-208.07 1324.72,-208.48 1335.17,-208.86"/>
<polygon fill="black" stroke="black" points="1334.79,-212.35 1344.91,-209.21 1335.05,-205.35 1334.79,-212.35"/>
<text xml:space="preserve" text-anchor="middle" x="1325.28" y="-212.79" font-family="Times,serif" font-size="14.00">a</text>
</g>
<!-- 8&#45;&gt;11 -->
<g id="edge13" class="edge">
<title>8-&gt;11</title>
<path fill="none" stroke="black" d="M1135.3,-204.65C1144.34,-204.99 1155.7,-205.42 1166.24,-205.82"/>
<polygon fill="black" stroke="black" points="1165.99,-209.31 1176.11,-206.19 1166.25,-202.31 1165.99,-209.31"/>
<text xml:space="preserve" text-anchor="middle" x="1156.5" y="-209.7" font-family="Times,serif" font-size="14.00">b</text>
</g>
<!-- 8&#45;&gt;8 -->
<g id="edge37" class="edge">
<title>8-&gt;8</title>
<path fill="none" stroke="black" d="M1110,-221.04C1108.58,-230.86 1110.91,-240 1117,-240 1120.53,-240 1122.79,-236.94 1123.8,-232.47"/>
<polygon fill="black" stroke="black" points="1127.3,-232.61 1123.98,-222.55 1120.3,-232.49 1127.3,-232.61"/>
<text xml:space="preserve" text-anchor="middle" x="1117" y="-244.2" font-family="Times,serif" font-size="14.00">a</text>
</g>
<!-- 19&#45;&gt;23 -->
<g id="edge40" class="edge">
<title>19-&gt;23</title>
<path fill="none" stroke="black" d="M1733.87,-197C1742.92,-197 1753.9,-197 1764.28,-197"/>
<polygon fill="black" stroke="black" points="1764.09,-200.5 1774.09,-197 1764.09,-193.5 1764.09,-200.5"/>
<text xml:space="preserve" text-anchor="middle" x="1754.82" y="-201.2" font-family="Times,serif" font-size="14.00">a</text>
</g>
<!-- 19&#45;&gt;13 -->
<g id="edge7" class="edge">
<title>19-&gt;13</title>
<path fill="none" stroke="black" d="M1702.5,-178.95C1691.92,-160.64 1673.15,-132.8 1649.33,-117 1622.5,-99.2 1611.63,-98 1579.44,-98 1366.47,-98 1366.47,-98 1366.47,-98 1327,-98 1304.04,-144.04 1292.79,-176.28"/>
<polygon fill="black" stroke="black" points="1289.54,-174.98 1289.77,-185.57 1296.19,-177.14 1289.54,-174.98"/>
<text xml:space="preserve" text-anchor="middle" x="1494.05" y="-102.2" font-family="Times,serif" font-size="14.00">b</text>
</g>
<!-- 1&#45;&gt;3 -->
<g id="edge8" class="edge">
<title>1-&gt;3</title>
<path fill="none" stroke="black" d="M200.21,-63.61C211.45,-52.96 229.33,-38.36 248.21,-32.2 270.89,-24.8 297.82,-30.1 317.37,-36.32"/>
<polygon fill="black" stroke="black" points="316.19,-39.61 326.79,-39.6 318.5,-33.01 316.19,-39.61"/>
<text xml:space="preserve" text-anchor="middle" x="266.21" y="-36.4" font-family="Times,serif" font-size="14.00">a</text>
</g>
<!-- 4 -->
<g id="node17" class="node">
<title>4</title>
<ellipse fill="none" stroke="black" cx="266.21" cy="-76" rx="18" ry="18"/>
<text xml:space="preserve" text-anchor="middle" x="266.21" y="-71.8" font-family="Times,serif" font-size="14.00">4</text>
</g>
<!-- 1&#45;&gt;4 -->
<g id="edge51" class="edge">
<title>1-&gt;4</title>
<path fill="none" stroke="black" d="M205.69,-76C214.74,-76 226.04,-76 236.35,-76"/>
<polygon fill="black" stroke="black" points="236.3,-79.5 246.3,-76 236.3,-72.5 236.3,-79.5"/>
<text xml:space="preserve" text-anchor="middle" x="226.71" y="-80.2" font-family="Times,serif" font-size="14.00">b</text>
</g>
<!-- 3&#45;&gt;3 -->
<g id="edge49" class="edge">
<title>3-&gt;3</title>
<path fill="none" stroke="black" d="M338.21,-64.04C336.79,-73.86 339.12,-83 345.21,-83 348.74,-83 351,-79.94 352.01,-75.47"/>
<polygon fill="black" stroke="black" points="355.51,-75.61 352.19,-65.55 348.51,-75.49 355.51,-75.61"/>
<text xml:space="preserve" text-anchor="middle" x="345.21" y="-87.2" font-family="Times,serif" font-size="14.00">a</text>
</g>
<!-- 6 -->
<g id="node19" class="node">
<title>6</title>
<ellipse fill="none" stroke="black" cx="453.21" cy="-53" rx="18" ry="18"/>
<text xml:space="preserve" text-anchor="middle" x="453.21" y="-48.8" font-family="Times,serif" font-size="14.00">6</text>
</g>
<!-- 3&#45;&gt;6 -->
<g id="edge12" class="edge">
<title>3-&gt;6</title>
<path fill="none" stroke="black" d="M362.35,-53.2C368.2,-55.14 374.92,-57.03 381.21,-58 395.24,-60.15 410.97,-59.37 424.05,-57.85"/>
<polygon fill="black" stroke="black" points="424.27,-61.35 433.7,-56.51 423.32,-54.42 424.27,-61.35"/>
<text xml:space="preserve" text-anchor="middle" x="399.21" y="-63.52" font-family="Times,serif" font-size="14.00">b</text>
</g>
<!-- 4&#45;&gt;7 -->
<g id="edge28" class="edge">
<title>4-&gt;7</title>
<path fill="none" stroke="black" d="M278.02,-89.75C284.42,-97.15 293.04,-105.96 302.21,-112 318.9,-122.98 324.24,-128 344.21,-128 344.21,-128 344.21,-128 533.21,-128 549.91,-128 568.23,-124.35 582.81,-120.53"/>
<polygon fill="black" stroke="black" points="583.46,-123.99 592.14,-117.92 581.57,-117.25 583.46,-123.99"/>
<text xml:space="preserve" text-anchor="middle" x="453.21" y="-132.2" font-family="Times,serif" font-size="14.00">b</text>
</g>
<!-- 4&#45;&gt;3 -->
<g id="edge9" class="edge">
<title>4-&gt;3</title>
<path fill="none" stroke="black" d="M282.15,-66.89C288.21,-63.49 295.39,-59.81 302.21,-57.2 306.58,-55.53 311.31,-54.06 315.97,-52.81"/>
<polygon fill="black" stroke="black" points="316.78,-56.21 325.68,-50.47 315.14,-49.41 316.78,-56.21"/>
<text xml:space="preserve" text-anchor="middle" x="305.71" y="-61.4" font-family="Times,serif" font-size="14.00">a</text>
</g>
<!-- 16&#45;&gt;20 -->
<g id="edge30" class="edge">
<title>16-&gt;20</title>
<path fill="none" stroke="black" d="M1388.41,-210C1397.76,-210 1409.11,-210 1419.55,-210"/>
<polygon fill="black" stroke="black" points="1419.3,-213.5 1429.3,-210 1419.3,-206.5 1419.3,-213.5"/>
<text xml:space="preserve" text-anchor="middle" x="1409.66" y="-214.2" font-family="Times,serif" font-size="14.00">b</text>
</g>
<!-- 16&#45;&gt;15 -->
<g id="edge42" class="edge">
<title>16-&gt;15</title>
<path fill="none" stroke="black" d="M1375.49,-229.27C1386.8,-256.51 1411.82,-303 1450.86,-303 1450.86,-303 1450.86,-303 1801.62,-303 1824.5,-303 1847.27,-290.25 1863.57,-278.33"/>
<polygon fill="black" stroke="black" points="1865.42,-281.32 1871.18,-272.43 1861.13,-275.79 1865.42,-281.32"/>
<text xml:space="preserve" text-anchor="middle" x="1624.63" y="-307.2" font-family="Times,serif" font-size="14.00">a</text>
</g>
<!-- 6&#45;&gt;9 -->
<g id="edge36" class="edge">
<title>6-&gt;9</title>
<path fill="none" stroke="black" d="M471.69,-53C480.74,-53 492.04,-53 502.35,-53"/>
<polygon fill="black" stroke="black" points="502.3,-56.5 512.3,-53 502.3,-49.5 502.3,-56.5"/>
<text xml:space="preserve" text-anchor="middle" x="492.71" y="-57.2" font-family="Times,serif" font-size="14.00">b</text>
</g>
<!-- 6&#45;&gt;3 -->
<g id="edge32" class="edge">
<title>6-&gt;3</title>
<path fill="none" stroke="black" d="M437.02,-44.45C431.04,-41.54 423.99,-38.66 417.21,-37.2 401.57,-33.83 397.07,-35.02 381.21,-37.2 378.73,-37.54 376.16,-38.01 373.61,-38.57"/>
<polygon fill="black" stroke="black" points="373.03,-35.11 364.22,-40.99 374.78,-41.88 373.03,-35.11"/>
<text xml:space="preserve" text-anchor="middle" x="399.21" y="-41.4" font-family="Times,serif" font-size="14.00">a</text>
</g>
<!-- 24 -->
<g id="node20" class="node">
<title>24</title>
<ellipse fill="none" stroke="black" cx="1536.24" cy="-151" rx="20.69" ry="20.69"/>
<text xml:space="preserve" text-anchor="middle" x="1536.24" y="-146.8" font-family="Times,serif" font-size="14.00">24</text>
</g>
<!-- 24&#45;&gt;25 -->
<g id="edge15" class="edge">
<title>24-&gt;25</title>
<path fill="none" stroke="black" d="M1557.28,-151C1566.48,-151 1577.67,-151 1588.21,-151"/>
<polygon fill="black" stroke="black" points="1588.2,-154.5 1598.2,-151 1588.2,-147.5 1588.2,-154.5"/>
<text xml:space="preserve" text-anchor="middle" x="1578.44" y="-155.2" font-family="Times,serif" font-size="14.00">a</text>
</g>
<!-- 24&#45;&gt;20 -->
<g id="edge20" class="edge">
<title>24-&gt;20</title>
<path fill="none" stroke="black" d="M1517.94,-161.23C1509.52,-166.39 1499.34,-172.87 1490.55,-179.2 1486.07,-182.42 1481.42,-186.01 1476.99,-189.56"/>
<polygon fill="black" stroke="black" points="1474.99,-186.67 1469.46,-195.71 1479.42,-192.09 1474.99,-186.67"/>
<text xml:space="preserve" text-anchor="middle" x="1494.05" y="-183.4" font-family="Times,serif" font-size="14.00">b</text>
</g>
<!-- 10&#45;&gt;10 -->
<g id="edge18" class="edge">
<title>10-&gt;10</title>
<path fill="none" stroke="black" d="M685.35,-164.51C684.18,-174.6 686.7,-183.69 692.91,-183.69 696.59,-183.69 698.98,-180.49 700.06,-175.77"/>
<polygon fill="black" stroke="black" points="703.55,-176.14 700.41,-166.02 696.56,-175.89 703.55,-176.14"/>
<text xml:space="preserve" text-anchor="middle" x="692.91" y="-187.89" font-family="Times,serif" font-size="14.00">b</text>
</g>
<!-- 12 -->
<g id="node26" class="node">
<title>12</title>
<ellipse fill="none" stroke="black" cx="776.51" cy="-361" rx="20.69" ry="20.69"/>
<text xml:space="preserve" text-anchor="middle" x="776.51" y="-356.8" font-family="Times,serif" font-size="14.00">12</text>
</g>
<!-- 10&#45;&gt;12 -->
<g id="edge26" class="edge">
<title>10-&gt;12</title>
<path fill="none" stroke="black" d="M700.84,-164.61C708.29,-185.56 720.55,-219.71 731.6,-249 742.19,-277.08 754.73,-308.94 763.69,-331.47"/>
<polygon fill="black" stroke="black" points="760.39,-332.63 767.34,-340.63 766.89,-330.04 760.39,-332.63"/>
<text xml:space="preserve" text-anchor="middle" x="734.71" y="-268.49" font-family="Times,serif" font-size="14.00">a</text>
</g>
<!-- 20&#45;&gt;19 -->
<g id="edge43" class="edge">
<title>20-&gt;19</title>
<path fill="none" stroke="black" d="M1472.76,-209C1517.61,-206.75 1626.84,-201.27 1680.8,-198.57"/>
<polygon fill="black" stroke="black" points="1680.72,-202.07 1690.53,-198.08 1680.37,-195.08 1680.72,-202.07"/>
<text xml:space="preserve" text-anchor="middle" x="1578.44" y="-208" font-family="Times,serif" font-size="14.00">b</text>
</g>
<!-- 20&#45;&gt;24 -->
<g id="edge41" class="edge">
<title>20-&gt;24</title>
<path fill="none" stroke="black" d="M1460.47,-190.78C1466.58,-178.08 1476.48,-162.33 1490.55,-154.2 1494.72,-151.79 1499.48,-150.36 1504.31,-149.57"/>
<polygon fill="black" stroke="black" points="1504.22,-153.09 1513.94,-148.87 1503.71,-146.11 1504.22,-153.09"/>
<text xml:space="preserve" text-anchor="middle" x="1494.05" y="-158.4" font-family="Times,serif" font-size="14.00">a</text>
</g>
<!-- 5&#45;&gt;8 -->
<g id="edge22" class="edge">
<title>5-&gt;8</title>
<path fill="none" stroke="black" d="M416.88,-215.3C435.08,-220.61 465.16,-228 491.71,-228 491.71,-228 491.71,-228 1032.31,-228 1052.21,-228 1073.77,-221.66 1090.02,-215.49"/>
<polygon fill="black" stroke="black" points="1090.97,-218.88 1098.94,-211.9 1088.36,-212.39 1090.97,-218.88"/>
<text xml:space="preserve" text-anchor="middle" x="734.71" y="-232.2" font-family="Times,serif" font-size="14.00">a</text>
</g>
<!-- 5&#45;&gt;5 -->
<g id="edge34" class="edge">
<title>5-&gt;5</title>
<path fill="none" stroke="black" d="M389.89,-225.92C387.46,-236.15 390.57,-246 399.21,-246 404.48,-246 407.7,-242.34 408.85,-237.17"/>
<polygon fill="black" stroke="black" points="412.36,-237.33 408.58,-227.43 405.36,-237.52 412.36,-237.33"/>
<text xml:space="preserve" text-anchor="middle" x="399.21" y="-250.2" font-family="Times,serif" font-size="14.00">b</text>
</g>
<!-- 14 -->
<g id="node24" class="node">
<title>14</title>
<ellipse fill="none" stroke="black" cx="860.11" cy="-361" rx="20.69" ry="20.69"/>
<text xml:space="preserve" text-anchor="middle" x="860.11" y="-356.8" font-family="Times,serif" font-size="14.00">14</text>
</g>
<!-- 14&#45;&gt;17 -->
<g id="edge48" class="edge">
<title>14-&gt;17</title>
<path fill="none" stroke="black" d="M880.45,-355.31C890.1,-352.47 902,-348.97 912.79,-345.8"/>
<polygon fill="black" stroke="black" points="913.45,-349.25 922.06,-343.07 911.48,-342.54 913.45,-349.25"/>
<text xml:space="preserve" text-anchor="middle" x="901.91" y="-353.92" font-family="Times,serif" font-size="14.00">a</text>
</g>
<!-- 14&#45;&gt;18 -->
<g id="edge23" class="edge">
<title>14-&gt;18</title>
<path fill="none" stroke="black" d="M879.1,-369.88C895.32,-377.07 920.04,-386 942.71,-386 942.71,-386 942.71,-386 1755.82,-386 1798.81,-386 1813.39,-385.29 1849.53,-362 1884.97,-339.15 1887.05,-324.06 1908.91,-288 1930.82,-251.87 1949.27,-206.62 1960.18,-177.28"/>
<polygon fill="black" stroke="black" points="1963.46,-178.5 1963.6,-167.91 1956.88,-176.1 1963.46,-178.5"/>
<text xml:space="preserve" text-anchor="middle" x="1409.66" y="-390.2" font-family="Times,serif" font-size="14.00">b</text>
</g>
<!-- 18&#45;&gt;22 -->
<g id="edge52" class="edge">
<title>18-&gt;22</title>
<path fill="none" stroke="black" d="M1992.67,-147C2001.72,-147 2012.7,-147 2023.08,-147"/>
<polygon fill="black" stroke="black" points="2022.89,-150.5 2032.89,-147 2022.89,-143.5 2022.89,-150.5"/>
<text xml:space="preserve" text-anchor="middle" x="2013.62" y="-151.2" font-family="Times,serif" font-size="14.00">a</text>
</g>
<!-- 18&#45;&gt;13 -->
<g id="edge29" class="edge">
<title>18-&gt;13</title>
<path fill="none" stroke="black" d="M1963.99,-127.52C1952.93,-99.99 1928.34,-53 1889.22,-53 1366.47,-53 1366.47,-53 1366.47,-53 1311.64,-53 1293.16,-129.85 1287.04,-174.97"/>
<polygon fill="black" stroke="black" points="1283.59,-174.38 1285.86,-184.73 1290.53,-175.22 1283.59,-174.38"/>
<text xml:space="preserve" text-anchor="middle" x="1624.63" y="-57.2" font-family="Times,serif" font-size="14.00">b</text>
</g>
<!-- 12&#45;&gt;14 -->
<g id="edge50" class="edge">
<title>12-&gt;14</title>
<path fill="none" stroke="black" d="M797.68,-361C806.77,-361 817.72,-361 827.83,-361"/>
<polygon fill="black" stroke="black" points="827.66,-364.5 837.66,-361 827.66,-357.5 827.66,-364.5"/>
<text xml:space="preserve" text-anchor="middle" x="818.31" y="-365.2" font-family="Times,serif" font-size="14.00">a</text>
</g>
<!-- 12&#45;&gt;15 -->
<g id="edge39" class="edge">
<title>12-&gt;15</title>
<path fill="none" stroke="black" d="M788.9,-377.88C802.99,-396.54 828.86,-424 859.11,-424 859.11,-424 859.11,-424 1755.82,-424 1824.04,-424 1862.41,-336.73 1878.36,-288.74"/>
<polygon fill="black" stroke="black" points="1881.61,-290.06 1881.3,-279.47 1874.94,-287.94 1881.61,-290.06"/>
<text xml:space="preserve" text-anchor="middle" x="1325.28" y="-428.2" font-family="Times,serif" font-size="14.00">b</text>
</g>
<!-- 15&#45;&gt;19 -->
<g id="edge27" class="edge">
<title>15-&gt;19</title>
<path fill="none" stroke="black" d="M1867.46,-254.78C1844.85,-250.74 1806.94,-242.86 1775.93,-231 1764.52,-226.64 1762.43,-223.86 1751.71,-218 1748.43,-216.2 1744.99,-214.31 1741.58,-212.42"/>
<polygon fill="black" stroke="black" points="1743.39,-209.42 1732.95,-207.62 1739.99,-215.54 1743.39,-209.42"/>
<text xml:space="preserve" text-anchor="middle" x="1800.62" y="-249.88" font-family="Times,serif" font-size="14.00">b</text>
</g>
<!-- 15&#45;&gt;18 -->
<g id="edge46" class="edge">
<title>15-&gt;18</title>
<path fill="none" stroke="black" d="M1901.26,-241.62C1914.64,-223.42 1936.41,-193.8 1952.04,-172.55"/>
<polygon fill="black" stroke="black" points="1954.73,-174.8 1957.83,-164.67 1949.09,-170.65 1954.73,-174.8"/>
<text xml:space="preserve" text-anchor="middle" x="1930.02" y="-210.03" font-family="Times,serif" font-size="14.00">a</text>
</g>
</g>
</svg>