<svg width="1151pt" height="364pt" viewBox="0.00 0.00 1151.00 364.00" xmlns="http://www.w3.org/2000/svg" xmlns:xlink="http://www.w3.org/1999/xlink">
<g id="graph0" class="graph" transform="scale(1 1) rotate(0) translate(4 359.86)">
<title>G</title>
<polygon fill="white" stroke="none" points="-4,4 -4,-359.86 1147.44,-359.86 1147.44,4 -4,4"/>
<!-- 19 -->
<g id="node1" class="node">
<title>19</title>
<ellipse fill="none" stroke="black" cx="1118.74" cy="-170.37" rx="20.69" ry="20.69"/>
<ellipse fill="none" stroke="black" cx="1118.74" cy="-170.37" rx="24.69" ry="24.69"/>
<text xml:space="preserve" text-anchor="middle" x="1118.74" y="-166.17" font-family="Times,serif" font-size="14.00">19</text>
</g>
<!-- start -->
<g id="node2" class="node">
<title>start</title>
</g>
<!-- 0 -->
<g id="node3" class="node">
<title>0</title>
<ellipse fill="none" stroke="black" cx="109" cy="-199.37" rx="18" ry="18"/>
<text xml:space="preserve" text-anchor="middle" x="109" y="-195.17" font-family="Times,serif" font-size="14.00">0</text>
</g>
<!-- start&#45;&gt;0 -->
<g id="edge1" class="edge">
<title>start-&gt;0</title>
<path fill="none" stroke="black" d="M53.75,-199.37C61.85,-199.37 70.85,-199.37 79.16,-199.37"/>
<polygon fill="black" stroke="black" points="79.12,-202.87 89.12,-199.37 79.12,-195.87 79.12,-202.87"/>
</g>
<!-- 1 -->
<g id="node4" class="node">
<title>1</title>
<ellipse fill="none" stroke="black" cx="257.1" cy="-199.37" rx="18" ry="18"/>
<text xml:space="preserve" text-anchor="middle" x="257.1" y="-195.17" font-family="Times,serif" font-size="14.00">1</text>
</g>
<!-- 0&#45;&gt;1 -->
<g id="edge2" class="edge">
<title>0-&gt;1</title>
<path fill="none" stroke="black" d="M127.33,-199.37C152.05,-199.37 197.71,-199.37 227.48,-199.37"/>
<polygon fill="black" stroke="black" points="227.28,-202.87 237.28,-199.37 227.28,-195.87 227.28,-202.87"/>
<text xml:space="preserve" text-anchor="middle" x="153.36" y="-203.57" font-family="Times,serif" font-size="14.00">a</text>
</g>
<!-- 4 -->
<g id="node7" class="node">
<title>4</title>
<ellipse fill="none" stroke="black" cx="200.41" cy="-118.37" rx="18" ry="18"/>
<text xml:space="preserve" text-anchor="middle" x="200.41" y="-114.17" font-family="Times,serif" font-size="14.00">4</text>
</g>
<!-- 0&#45;&gt;4 -->
<g id="edge5" class="edge">
<title>0-&gt;4</title>
<path fill="none" stroke="black" d="M121.12,-185.89C127.74,-178.17 136.49,-168.47 145,-160.57 154.59,-151.66 165.93,-142.65 175.77,-135.26"/>
<polygon fill="black" stroke="black" points="177.8,-138.12 183.77,-129.37 173.64,-132.48 177.8,-138.12"/>
<text xml:space="preserve" text-anchor="middle" x="153.36" y="-164.77" font-family="Times,serif" font-size="14.00">a,b</text>
</g>
<!-- 5 -->
<g id="node8" class="node">
<title>5</title>
<ellipse fill="none" stroke="black" cx="313.79" cy="-84.37" rx="18" ry="18"/>
<text xml:space="preserve" text-anchor="middle" x="313.79" y="-80.17" font-family="Times,serif" font-size="14.00">5</text>
</g>
<!-- 0&#45;&gt;5 -->
<g id="edge8" class="edge">
<title>0-&gt;5</title>
<path fill="none" stroke="black" d="M113.86,-181.72C121.14,-153.23 139.9,-97.93 179.71,-74.57 212.38,-55.4 257.59,-64.71 286.01,-73.94"/>
<polygon fill="black" stroke="black" points="284.7,-77.19 295.29,-77.18 287,-70.58 284.7,-77.19"/>
<text xml:space="preserve" text-anchor="middle" x="200.41" y="-78.77" font-family="Times,serif" font-size="14.00">b</text>
</g>
<!-- 11 -->
<g id="node15" class="node">
<title>11</title>
<ellipse fill="none" stroke="black" cx="200.41" cy="-300.37" rx="20.69" ry="20.69"/>
<text xml:space="preserve" text-anchor="middle" x="200.41" y="-296.17" font-family="Times,serif" font-size="14.00">11</text>
</g>
<!-- 0&#45;&gt;11 -->
<g id="edge21" class="edge">
<title>0-&gt;11</title>
<path fill="none" stroke="black" d="M117.35,-215.79C123.56,-228.54 133.3,-246.21 145,-259.37 153.05,-268.42 163.36,-276.8 172.85,-283.58"/>
<polygon fill="black" stroke="black" points="170.82,-286.43 181.05,-289.19 174.77,-280.65 170.82,-286.43"/>
<text xml:space="preserve" text-anchor="middle" x="153.36" y="-278.93" font-family="Times,serif" font-size="14.00">a,b</text>
</g>
<!-- 12 -->
<g id="node16" class="node">
<title>12</title>
<ellipse fill="none" stroke="black" cx="313.79" cy="-272.37" rx="20.69" ry="20.69"/>
<text xml:space="preserve" text-anchor="middle" x="313.79" y="-268.17" font-family="Times,serif" font-size="14.00">12</text>
</g>
<!-- 0&#45;&gt;12 -->
<g id="edge24" class="edge">
<title>0-&gt;12</title>
<path fill="none" stroke="black" d="M124.56,-209.18C130.69,-213.02 138.01,-217.24 145,-220.37 191.07,-240.97 247.7,-256.67 281.98,-265.19"/>
<polygon fill="black" stroke="black" points="281.1,-268.58 291.65,-267.54 282.76,-261.78 281.1,-268.58"/>
<text xml:space="preserve" text-anchor="middle" x="200.41" y="-252.21" font-family="Times,serif" font-size="14.00">a</text>
</g>
<!-- 2 -->
<g id="node5" class="node">
<title>2</title>
<ellipse fill="none" stroke="black" cx="482.57" cy="-226.37" rx="18" ry="18"/>
<text xml:space="preserve" text-anchor="middle" x="482.57" y="-222.17" font-family="Times,serif" font-size="14.00">2</text>
</g>
<!-- 1&#45;&gt;2 -->
<g id="edge3" class="edge">
<title>1-&gt;2</title>
<path fill="none" stroke="black" d="M275.26,-201.44C313.53,-206.07 406.15,-217.26 453.17,-222.94"/>
<polygon fill="black" stroke="black" points="452.5,-226.38 462.84,-224.11 453.33,-219.43 452.5,-226.38"/>
<text xml:space="preserve" text-anchor="middle" x="355.99" y="-215.6" font-family="Times,serif" font-size="14.00">b</text>
</g>
<!-- 3 -->
<g id="node6" class="node">
<title>3</title>
<ellipse fill="none" stroke="black" cx="618.26" cy="-218.37" rx="18" ry="18"/>
<text xml:space="preserve" text-anchor="middle" x="618.26" y="-214.17" font-family="Times,serif" font-size="14.00">3</text>
</g>
<!-- 2&#45;&gt;3 -->
<g id="edge4" class="edge">
<title>2-&gt;3</title>
<path fill="none" stroke="black" d="M500.77,-225.34C523.03,-224.01 562.12,-221.67 588.83,-220.07"/>
<polygon fill="black" stroke="black" points="588.84,-223.58 598.61,-219.48 588.42,-216.59 588.84,-223.58"/>
<text xml:space="preserve" text-anchor="middle" x="524.76" y="-228.24" font-family="Times,serif" font-size="14.00">b</text>
</g>
<!-- 15 -->
<g id="node18" class="node">
<title>15</title>
<ellipse fill="none" stroke="black" cx="759.34" cy="-170.37" rx="20.69" ry="20.69"/>
<text xml:space="preserve" text-anchor="middle" x="759.34" y="-166.17" font-family="Times,serif" font-size="14.00">15</text>
</g>
<!-- 3&#45;&gt;15 -->
<g id="edge30" class="edge">
<title>3-&gt;15</title>
<path fill="none" stroke="black" d="M635.76,-212.67C658.66,-204.77 700.43,-190.35 728.78,-180.57"/>
<polygon fill="black" stroke="black" points="729.91,-183.88 738.22,-177.31 727.62,-177.27 729.91,-183.88"/>
<text xml:space="preserve" text-anchor="middle" x="674.95" y="-210.43" font-family="Times,serif" font-size="14.00">b</text>
</g>
<!-- 4&#45;&gt;4 -->
<g id="edge6" class="edge">
<title>4-&gt;4</title>
<path fill="none" stroke="black" d="M192.21,-134.66C190.23,-144.76 192.96,-154.37 200.41,-154.37 204.83,-154.37 207.59,-150.98 208.68,-146.11"/>
<polygon fill="black" stroke="black" points="212.18,-146.15 208.62,-136.17 205.18,-146.2 212.18,-146.15"/>
<text xml:space="preserve" text-anchor="middle" x="200.41" y="-158.57" font-family="Times,serif" font-size="14.00">a,b</text>
</g>
<!-- 4&#45;&gt;5 -->
<g id="edge7" class="edge">
<title>4-&gt;5</title>
<path fill="none" stroke="black" d="M217.84,-113.35C235.61,-107.93 264.23,-99.19 285.41,-92.73"/>
<polygon fill="black" stroke="black" points="286.3,-96.11 294.84,-89.85 284.26,-89.42 286.3,-96.11"/>
<text xml:space="preserve" text-anchor="middle" x="257.1" y="-110.6" font-family="Times,serif" font-size="14.00">b</text>
</g>
<!-- 6 -->
<g id="node9" class="node">
<title>6</title>
<ellipse fill="none" stroke="black" cx="398.18" cy="-84.37" rx="18" ry="18"/>
<text xml:space="preserve" text-anchor="middle" x="398.18" y="-80.17" font-family="Times,serif" font-size="14.00">6</text>
</g>
<!-- 5&#45;&gt;6 -->
<g id="edge9" class="edge">
<title>5-&gt;6</title>
<path fill="none" stroke="black" d="M332.27,-84.37C342.75,-84.37 356.35,-84.37 368.39,-84.37"/>
<polygon fill="black" stroke="black" points="368.22,-87.87 378.22,-84.37 368.22,-80.87 368.22,-87.87"/>
<text xml:space="preserve" text-anchor="middle" x="355.99" y="-88.57" font-family="Times,serif" font-size="14.00">b</text>
</g>
<!-- 6&#45;&gt;6 -->
<g id="edge10" class="edge">
<title>6-&gt;6</title>
<path fill="none" stroke="black" d="M390.76,-101.03C389.12,-110.99 391.59,-120.37 398.18,-120.37 402.1,-120.37 404.56,-117.06 405.57,-112.29"/>
<polygon fill="black" stroke="black" points="409.07,-112.56 405.59,-102.55 402.07,-112.54 409.07,-112.56"/>
<text xml:space="preserve" text-anchor="middle" x="398.18" y="-124.57" font-family="Times,serif" font-size="14.00">b</text>
</g>
<!-- 7 -->
<g id="node10" class="node">
<title>7</title>
<ellipse fill="none" stroke="black" cx="482.57" cy="-137.37" rx="18" ry="18"/>
<text xml:space="preserve" text-anchor="middle" x="482.57" y="-133.17" font-family="Times,serif" font-size="14.00">7</text>
</g>
<!-- 6&#45;&gt;7 -->
<g id="edge11" class="edge">
<title>6-&gt;7</title>
<path fill="none" stroke="black" d="M413.28,-94.95C420.27,-100.07 428.9,-106.21 436.87,-111.37 443.21,-115.46 450.19,-119.67 456.73,-123.48"/>
<polygon fill="black" stroke="black" points="454.73,-126.36 465.14,-128.3 458.21,-120.29 454.73,-126.36"/>
<text xml:space="preserve" text-anchor="middle" x="440.37" y="-119.33" font-family="Times,serif" font-size="14.00">a</text>
</g>
<!-- 8 -->
<g id="node11" class="node">
<title>8</title>
<ellipse fill="none" stroke="black" cx="482.57" cy="-48.37" rx="18" ry="18"/>
<text xml:space="preserve" text-anchor="middle" x="482.57" y="-44.17" font-family="Times,serif" font-size="14.00">8</text>
</g>
<!-- 6&#45;&gt;8 -->
<g id="edge14" class="edge">
<title>6-&gt;8</title>
<path fill="none" stroke="black" d="M410.77,-71.32C417.64,-64.51 426.93,-56.74 436.87,-52.57 442,-50.42 447.73,-49.14 453.33,-48.42"/>
<polygon fill="black" stroke="black" points="453.2,-51.94 462.92,-47.71 452.69,-44.95 453.2,-51.94"/>
<text xml:space="preserve" text-anchor="middle" x="440.37" y="-56.77" font-family="Times,serif" font-size="14.00">a</text>
</g>
<!-- 9 -->
<g id="node12" class="node">
<title>9</title>
<ellipse fill="none" stroke="black" cx="564.26" cy="-48.37" rx="18" ry="18"/>
<text xml:space="preserve" text-anchor="middle" x="564.26" y="-44.17" font-family="Times,serif" font-size="14.00">9</text>
</g>
<!-- 6&#45;&gt;9 -->
<g id="edge17" class="edge">
<title>6-&gt;9</title>
<path fill="none" stroke="black" d="M406.36,-68.17C415.91,-48.92 434.78,-17.74 461.87,-4.57 489.24,8.73 521.64,-11.29 542.31,-28.43"/>
<polygon fill="black" stroke="black" points="539.96,-31.02 549.79,-34.98 544.57,-25.75 539.96,-31.02"/>
<text xml:space="preserve" text-anchor="middle" x="482.57" y="-8.77" font-family="Times,serif" font-size="14.00">a</text>
</g>
<!-- 7&#45;&gt;6 -->
<g id="edge12" class="edge">
<title>7-&gt;6</title>
<path fill="none" stroke="black" d="M471.17,-123.43C461.32,-110.39 447.51,-92.62 443.87,-90.57 438.94,-87.77 433.22,-86.06 427.55,-85.05"/>
<polygon fill="black" stroke="black" points="428.09,-81.59 417.77,-83.98 427.33,-88.54 428.09,-81.59"/>
<text xml:space="preserve" text-anchor="middle" x="440.37" y="-94.77" font-family="Times,serif" font-size="14.00">b</text>
</g>
<!-- 7&#45;&gt;7 -->
<g id="edge13" class="edge">
<title>7-&gt;7</title>
<path fill="none" stroke="black" d="M475.15,-154.03C473.5,-163.99 475.98,-173.37 482.57,-173.37 486.48,-173.37 488.94,-170.06 489.95,-165.29"/>
<polygon fill="black" stroke="black" points="493.45,-165.56 489.98,-155.55 486.45,-165.54 493.45,-165.56"/>
<text xml:space="preserve" text-anchor="middle" x="482.57" y="-177.57" font-family="Times,serif" font-size="14.00">a</text>
</g>
<!-- 8&#45;&gt;8 -->
<g id="edge16" class="edge">
<title>8-&gt;8</title>
<path fill="none" stroke="black" d="M475.15,-65.03C473.5,-74.99 475.98,-84.37 482.57,-84.37 486.48,-84.37 488.94,-81.06 489.95,-76.29"/>
<polygon fill="black" stroke="black" points="493.45,-76.56 489.98,-66.55 486.45,-76.54 493.45,-76.56"/>
<text xml:space="preserve" text-anchor="middle" x="482.57" y="-88.57" font-family="Times,serif" font-size="14.00">a</text>
</g>
<!-- 8&#45;&gt;9 -->
<g id="edge15" class="edge">
<title>8-&gt;9</title>
<path fill="none" stroke="black" d="M500.86,-48.37C510.78,-48.37 523.48,-48.37 534.84,-48.37"/>
<polygon fill="black" stroke="black" points="534.49,-51.87 544.49,-48.37 534.49,-44.87 534.49,-51.87"/>
<text xml:space="preserve" text-anchor="middle" x="524.76" y="-52.57" font-family="Times,serif" font-size="14.00">a</text>
</g>
<!-- 10 -->
<g id="node13" class="node">
<title>10</title>
<ellipse fill="none" stroke="black" cx="674.95" cy="-113.37" rx="20.69" ry="20.69"/>
<text xml:space="preserve" text-anchor="middle" x="674.95" y="-109.17" font-family="Times,serif" font-size="14.00">10</text>
</g>
<!-- 9&#45;&gt;10 -->
<g id="edge18" class="edge">
<title>9-&gt;10</title>
<path fill="none" stroke="black" d="M580.37,-57.41C597.62,-67.72 626.15,-84.78 647.18,-97.36"/>
<polygon fill="black" stroke="black" points="645.14,-100.22 655.52,-102.35 648.74,-94.21 645.14,-100.22"/>
<text xml:space="preserve" text-anchor="middle" x="618.26" y="-94.69" font-family="Times,serif" font-size="14.00">b</text>
</g>
<!-- 10&#45;&gt;10 -->
<g id="edge20" class="edge">
<title>10-&gt;10</title>
<path fill="none" stroke="black" d="M667.32,-132.88C666.15,-142.97 668.69,-152.06 674.95,-152.06 678.67,-152.06 681.08,-148.86 682.18,-144.14"/>
<polygon fill="black" stroke="black" points="685.67,-144.51 682.53,-134.39 678.67,-144.26 685.67,-144.51"/>
<text xml:space="preserve" text-anchor="middle" x="674.95" y="-156.26" font-family="Times,serif" font-size="14.00">a,b</text>
</g>
<!-- 10&#45;&gt;15 -->
<g id="edge31" class="edge">
<title>10-&gt;15</title>
<path fill="none" stroke="black" d="M692.63,-124.9C704.02,-132.78 719.34,-143.39 732.32,-152.37"/>
<polygon fill="black" stroke="black" points="730.23,-155.18 740.45,-157.99 734.22,-149.42 730.23,-155.18"/>
<text xml:space="preserve" text-anchor="middle" x="717.15" y="-147.78" font-family="Times,serif" font-size="14.00">b</text>
</g>
<!-- 13 -->
<g id="node14" class="node">
<title>13</title>
<ellipse fill="none" stroke="black" cx="398.18" cy="-272.37" rx="20.69" ry="20.69"/>
<text xml:space="preserve" text-anchor="middle" x="398.18" y="-268.17" font-family="Times,serif" font-size="14.00">13</text>
</g>
<!-- 13&#45;&gt;2 -->
<g id="edge19" class="edge">
<title>13-&gt;2</title>
<path fill="none" stroke="black" d="M415.76,-260.75C422.22,-256.4 429.77,-251.56 436.87,-247.57 442.68,-244.31 449.06,-241.07 455.14,-238.16"/>
<polygon fill="black" stroke="black" points="456.62,-241.33 464.2,-233.94 453.66,-234.99 456.62,-241.33"/>
<text xml:space="preserve" text-anchor="middle" x="440.37" y="-251.77" font-family="Times,serif" font-size="14.00">b</text>
</g>
<!-- 13&#45;&gt;13 -->
<g id="edge26" class="edge">
<title>13-&gt;13</title>
<path fill="none" stroke="black" d="M390.55,-291.88C389.37,-301.97 391.92,-311.06 398.18,-311.06 401.9,-311.06 404.31,-307.86 405.4,-303.14"/>
<polygon fill="black" stroke="black" points="408.89,-303.51 405.76,-293.39 401.9,-303.26 408.89,-303.51"/>
<text xml:space="preserve" text-anchor="middle" x="398.18" y="-315.26" font-family="Times,serif" font-size="14.00">b</text>
</g>
<!-- 14 -->
<g id="node17" class="node">
<title>14</title>
<ellipse fill="none" stroke="black" cx="482.57" cy="-298.37" rx="20.69" ry="20.69"/>
<text xml:space="preserve" text-anchor="middle" x="482.57" y="-294.17" font-family="Times,serif" font-size="14.00">14</text>
</g>
<!-- 13&#45;&gt;14 -->
<g id="edge27" class="edge">
<title>13-&gt;14</title>
<path fill="none" stroke="black" d="M416.8,-281.99C423,-285.04 430.11,-288.19 436.87,-290.37 441.22,-291.77 445.9,-292.94 450.52,-293.93"/>
<polygon fill="black" stroke="black" points="449.75,-297.34 460.22,-295.71 451.02,-290.46 449.75,-297.34"/>
<text xml:space="preserve" text-anchor="middle" x="440.37" y="-296.29" font-family="Times,serif" font-size="14.00">a</text>
</g>
<!-- 11&#45;&gt;11 -->
<g id="edge22" class="edge">
<title>11-&gt;11</title>
<path fill="none" stroke="black" d="M191.95,-319.48C190.51,-329.73 193.33,-339.06 200.41,-339.06 204.61,-339.06 207.31,-335.77 208.51,-330.95"/>
<polygon fill="black" stroke="black" points="212.01,-331.1 208.82,-320.99 205.01,-330.88 212.01,-331.1"/>
<text xml:space="preserve" text-anchor="middle" x="200.41" y="-343.26" font-family="Times,serif" font-size="14.00">a,b</text>
</g>
<!-- 11&#45;&gt;12 -->
<g id="edge23" class="edge">
<title>11-&gt;12</title>
<path fill="none" stroke="black" d="M220.81,-295.49C237.72,-291.24 262.53,-285 282.12,-280.08"/>
<polygon fill="black" stroke="black" points="282.93,-283.49 291.77,-277.65 281.22,-276.7 282.93,-283.49"/>
<text xml:space="preserve" text-anchor="middle" x="257.1" y="-294.71" font-family="Times,serif" font-size="14.00">a</text>
</g>
<!-- 12&#45;&gt;13 -->
<g id="edge25" class="edge">
<title>12-&gt;13</title>
<path fill="none" stroke="black" d="M334.74,-272.37C344.08,-272.37 355.43,-272.37 365.88,-272.37"/>
<polygon fill="black" stroke="black" points="365.62,-275.87 375.62,-272.37 365.62,-268.87 365.62,-275.87"/>
<text xml:space="preserve" text-anchor="middle" x="355.99" y="-276.57" font-family="Times,serif" font-size="14.00">b</text>
</g>
<!-- 14&#45;&gt;13 -->
<g id="edge28" class="edge">
<title>14-&gt;13</title>
<path fill="none" stroke="black" d="M467.5,-284.09C460.92,-278.41 452.61,-272.52 443.87,-269.57 439.52,-268.1 434.8,-267.45 430.11,-267.33"/>
<polygon fill="black" stroke="black" points="430.06,-263.83 420.26,-267.86 430.43,-270.82 430.06,-263.83"/>
<text xml:space="preserve" text-anchor="middle" x="440.37" y="-273.77" font-family="Times,serif" font-size="14.00">b</text>
</g>
<!-- 14&#45;&gt;14 -->
<g id="edge29" class="edge">
<title>14-&gt;14</title>
<path fill="none" stroke="black" d="M474.93,-317.88C473.76,-327.97 476.3,-337.06 482.57,-337.06 486.29,-337.06 488.69,-333.86 489.79,-329.14"/>
<polygon fill="black" stroke="black" points="493.28,-329.51 490.15,-319.39 486.28,-329.26 493.28,-329.51"/>
<text xml:space="preserve" text-anchor="middle" x="482.57" y="-341.26" font-family="Times,serif" font-size="14.00">a</text>
</g>
<!-- 16 -->
<g id="node19" class="node">
<title>16</title>
<ellipse fill="none" stroke="black" cx="842.94" cy="-170.37" rx="20.69" ry="20.69"/>
<text xml:space="preserve" text-anchor="middle" x="842.94" y="-166.17" font-family="Times,serif" font-size="14.00">16</text>
</g>
<!-- 15&#45;&gt;16 -->
<g id="edge32" class="edge">
<title>15-&gt;16</title>
<path fill="none" stroke="black" d="M780.51,-170.37C789.6,-170.37 800.55,-170.37 810.67,-170.37"/>
<polygon fill="black" stroke="black" points="810.49,-173.87 820.49,-170.37 810.49,-166.87 810.49,-173.87"/>
<text xml:space="preserve" text-anchor="middle" x="801.14" y="-174.57" font-family="Times,serif" font-size="14.00">a</text>
</g>
<!-- 17 -->
<g id="node20" class="node">
<title>17</title>
<ellipse fill="none" stroke="black" cx="937.04" cy="-170.37" rx="20.69" ry="20.69"/>
<text xml:space="preserve" text-anchor="middle" x="937.04" y="-166.17" font-family="Times,serif" font-size="14.00">17</text>
</g>
<!-- 16&#45;&gt;17 -->
<g id="edge33" class="edge">
<title>16-&gt;17</title>
<path fill="none" stroke="black" d="M863.93,-170.37C875.88,-170.37 891.31,-170.37 904.84,-170.37"/>
<polygon fill="black" stroke="black" points="904.58,-173.87 914.58,-170.37 904.58,-166.87 904.58,-173.87"/>
<text xml:space="preserve" text-anchor="middle" x="889.99" y="-174.57" font-family="Times,serif" font-size="14.00">a,b</text>
</g>
<!-- 18 -->
<g id="node21" class="node">
<title>18</title>
<ellipse fill="none" stroke="black" cx="1031.14" cy="-170.37" rx="20.69" ry="20.69"/>
<text xml:space="preserve" text-anchor="middle" x="1031.14" y="-166.17" font-family="Times,serif" font-size="14.00">18</text>
</g>
<!-- 17&#45;&gt;18 -->
<g id="edge34" class="edge">
<title>17-&gt;18</title>
<path fill="none" stroke="black" d="M958.03,-170.37C969.98,-170.37 985.42,-170.37 998.94,-170.37"/>
<polygon fill="black" stroke="black" points="998.69,-173.87 1008.69,-170.37 998.69,-166.87 998.69,-173.87"/>
<text xml:space="preserve" text-anchor="middle" x="984.09" y="-174.57" font-family="Times,serif" font-size="14.00">a,b</text>
</g>
<!-- 18&#45;&gt;19 -->
<g id="edge35" class="edge">
<title>18-&gt;19</title>
<path fill="none" stroke="black" d="M1052,-170.37C1061.04,-170.37 1072.02,-170.37 1082.4,-170.37"/>
<polygon fill="black" stroke="black" points="1082.22,-173.87 1092.22,-170.37 1082.22,-166.87 1082.22,-173.87"/>
<text xml:space="preserve" text-anchor="middle" x="1072.94" y="-174.57" font-family="Times,serif" font-size="14.00">a</text>
</g>
</g>
</svg>